<svg id='Circled_Play_24' width='24' height='24' viewBox='0 0 24 24' xmlns='http://www.w3.org/2000/svg' xmlns:xlink='http://www.w3.org/1999/xlink'><rect width='24' height='24' stroke='none' fill='#ffffff' opacity='0'/>


<g transform="matrix(0.43 0 0 0.43 12 12)" >
<path style="stroke: none; stroke-width: 1; stroke-dasharray: none; stroke-linecap: butt; stroke-dashoffset: 0; stroke-linejoin: miter; stroke-miterlimit: 4; fill: #ffffff; fill-rule: nonzero; opacity: 1;" transform=" translate(-25, -25)" d="M 25 2 C 12.308594 2 2 12.308594 2 25 C 2 37.691406 12.308594 48 25 48 C 37.691406 48 48 37.691406 48 25 C 48 12.308594 37.691406 2 25 2 Z M 25 4 C 36.609375 4 46 13.390625 46 25 C 46 36.609375 36.609375 46 25 46 C 13.390625 46 4 36.609375 4 25 C 4 13.390625 13.390625 4 25 4 Z M 18 13.25 L 18 36.75 L 19.5 35.875 L 36.5 25.875 L 37.96875 25 L 36.5 24.125 L 19.5 14.125 Z M 20 16.75 L 34 25 L 20 33.25 Z" stroke-linecap="round" />
</g>
</svg>